<svg width="20" height="20" viewBox="0 0 20 20" fill="none" xmlns="http://www.w3.org/2000/svg">
<g id="check-circle">
<path id="Solid" fill-rule="evenodd" clip-rule="evenodd" d="M9.99999 0.833313C4.93738 0.833313 0.833328 4.93737 0.833328 9.99998C0.833328 15.0626 4.93738 19.1666 9.99999 19.1666C15.0626 19.1666 19.1667 15.0626 19.1667 9.99998C19.1667 4.93737 15.0626 0.833313 9.99999 0.833313ZM14.3392 8.08923C14.6647 7.7638 14.6647 7.23616 14.3392 6.91072C14.0138 6.58529 13.4862 6.58529 13.1607 6.91072L8.74999 11.3215L6.83925 9.41072C6.51381 9.08529 5.98618 9.08529 5.66074 9.41072C5.3353 9.73616 5.3353 10.2638 5.66074 10.5892L8.16074 13.0892C8.48618 13.4147 9.01381 13.4147 9.33925 13.0892L14.3392 8.08923Z" fill="#299764"/>
</g>
</svg>
