<svg width="18" height="19" viewBox="0 0.5 18 19" fill="none" xmlns="http://www.w3.org/2000/svg">
<path d="M9 2.11853C10.876 4.17229 11.9421 6.83756 12 9.61853C11.9421 12.3995 10.876 15.0648 9 17.1185M9 2.11853C7.12404 4.17229 6.05794 6.83756 6 9.61853C6.05794 12.3995 7.12404 15.0648 9 17.1185M9 2.11853C4.85786 2.11853 1.5 5.47639 1.5 9.61853C1.5 13.7607 4.85786 17.1185 9 17.1185M9 2.11853C13.1421 2.11853 16.5 5.47639 16.5 9.61853C16.5 13.7607 13.1421 17.1185 9 17.1185M1.87501 7.36853H16.125M1.875 11.8685H16.125" stroke="#687076" stroke-width="1.5" stroke-linecap="round" stroke-linejoin="round"/>
</svg>
