<svg width="148" height="29" viewBox="0 0 148 29" fill="none" xmlns="http://www.w3.org/2000/svg">
<path d="M0.143 1.38874H13.442V5.79074H4.731V9.69674H12.481V14.0987H4.731V18.6867H13.442V23.0887H0.143V1.38874ZM31.1705 23.0887H25.9005L23.0175 18.9657L20.1345 23.0887H14.9265L20.4135 15.2457L15.2675 7.86774H20.5375L23.0485 11.4637L25.5905 7.86774H30.7985L25.6525 15.2147L31.1705 23.0887ZM42.2446 7.55774C46.1816 7.55774 49.3126 11.0917 49.3126 15.4627C49.3126 19.8337 46.1816 23.3987 42.2446 23.3987C40.1366 23.3987 38.4936 22.5307 37.4396 20.9497V28.1107H33.0686V7.86774H37.4396V10.0067C38.4936 8.42574 40.1366 7.55774 42.2446 7.55774ZM41.2526 19.2137C43.3606 19.2137 45.0656 17.5707 45.0656 15.4627C45.0656 13.3857 43.3606 11.7117 41.2526 11.7117C39.1136 11.7117 37.4396 13.3547 37.4396 15.4627C37.4396 17.6017 39.1136 19.2137 41.2526 19.2137ZM58.8299 7.55774C63.2939 7.55774 66.7349 10.9677 66.7349 15.4937C66.7349 20.0197 63.2939 23.3987 58.8299 23.3987C54.3349 23.3987 50.9249 20.0197 50.9249 15.4937C50.9249 10.9677 54.3349 7.55774 58.8299 7.55774ZM58.8299 11.7427C56.7529 11.7427 55.2029 13.3237 55.2029 15.4937C55.2029 17.6017 56.7529 19.2137 58.8299 19.2137C60.8759 19.2137 62.4569 17.6017 62.4569 15.4937C62.4569 13.3237 60.8759 11.7427 58.8299 11.7427ZM86.0532 1.07874C92.3772 1.07874 97.1512 5.88374 97.1512 12.2387C97.1512 18.5937 92.3772 23.3987 86.0532 23.3987C79.7292 23.3987 74.9862 18.5937 74.9862 12.2387C74.9862 5.88374 79.7292 1.07874 86.0532 1.07874ZM86.0532 5.54274C82.4262 5.54274 79.6982 8.42574 79.6982 12.2387C79.6982 16.0517 82.4262 18.9347 86.0532 18.9347C89.6802 18.9347 92.4082 16.0517 92.4082 12.2387C92.4082 8.42574 89.6802 5.54274 86.0532 5.54274ZM107.74 7.55774C108.546 7.55774 109.29 7.68174 109.755 7.89874L109.259 12.1457C108.67 11.8977 107.988 11.7737 107.306 11.7737C105.849 11.7737 104.082 12.8897 104.082 15.5867V23.0887H99.7112V7.86774H104.082V9.75874C104.733 8.45674 106.407 7.55774 107.74 7.55774ZM120.946 7.55774C124.883 7.55774 128.014 11.0917 128.014 15.4627C128.014 19.8337 124.883 23.3987 120.946 23.3987C118.838 23.3987 117.195 22.5307 116.141 20.9497V23.0887H111.77V1.38874H116.141V10.0067C117.195 8.42574 118.838 7.55774 120.946 7.55774ZM119.954 19.2137C122.062 19.2137 123.767 17.5707 123.767 15.4627C123.767 13.3857 122.062 11.7117 119.954 11.7117C117.815 11.7117 116.141 13.3547 116.141 15.4627C116.141 17.6017 117.815 19.2137 119.954 19.2137ZM132.599 0.489744C134.056 0.489744 135.265 1.69874 135.265 3.12474C135.265 4.58175 134.056 5.79074 132.599 5.79074C131.142 5.79074 129.933 4.58175 129.933 3.12474C129.933 1.69874 131.142 0.489744 132.599 0.489744ZM130.429 7.86774H134.8V23.0887H130.429V7.86774ZM147.528 19.0277L147.745 22.9027C147.187 23.1817 146.319 23.3367 145.513 23.3367C141.948 23.3367 139.437 21.0737 139.437 17.1367V12.0217H136.616V7.86774H139.437V3.86874H143.808V7.86774H147.559V12.0217H143.808V16.9197C143.808 18.3457 144.893 19.2447 146.164 19.2447C146.598 19.2447 147.187 19.1517 147.528 19.0277Z" fill="white"/>
</svg>
