<svg xmlns="http://www.w3.org/2000/svg" width="18" height="19" viewBox="0 0.5 18 19" fill="none">
  <path d="M10.5 2.32068V5.41858C10.5 5.83862 10.5 6.04864 10.5817 6.20908C10.6537 6.3502 10.7684 6.46493 10.9095 6.53684C11.0699 6.61858 11.28 6.61858 11.7 6.61858H14.7979M10.5 13.3685H6M12 10.3685H6M15 8.1097V13.5185C15 14.7786 15 15.4087 14.7548 15.89C14.539 16.3134 14.1948 16.6576 13.7715 16.8733C13.2902 17.1185 12.6601 17.1185 11.4 17.1185H6.6C5.33988 17.1185 4.70982 17.1185 4.22852 16.8733C3.80516 16.6576 3.46095 16.3134 3.24524 15.89C3 15.4087 3 14.7786 3 13.5185V5.71853C3 4.45841 3 3.82835 3.24524 3.34705C3.46095 2.92369 3.80516 2.57948 4.22852 2.36377C4.70982 2.11853 5.33988 2.11853 6.6 2.11853H9.00883C9.55916 2.11853 9.83432 2.11853 10.0933 2.1807C10.3229 2.23582 10.5423 2.32673 10.7436 2.45009C10.9707 2.58923 11.1653 2.7838 11.5544 3.17295L13.9456 5.56411C14.3347 5.95326 14.5293 6.14783 14.6684 6.37489C14.7918 6.5762 14.8827 6.79568 14.9378 7.02526C15 7.28421 15 7.55937 15 8.1097Z" stroke-width="1.5" stroke-linecap="round" stroke-linejoin="round"/>
</svg>
