<?xml version="1.0" encoding="UTF-8"?>
<!--Generator: Apple Native CoreSVG 341-->
<!DOCTYPE svg PUBLIC "-//W3C//DTD SVG 1.1//EN" "http://www.w3.org/Graphics/SVG/1.1/DTD/svg11.dtd">
<svg version="1.1" xmlns="http://www.w3.org/2000/svg" xmlns:xlink="http://www.w3.org/1999/xlink"
    width="24" height="24" viewBox="0 0 24 24">
    <g transform="translate(6.17, 2.69)">
        <rect height="18.624" opacity="0" width="11.6631" x="0" y="0" />
        <path
            d="M2.5752 17.1914C1.82812 17.1914 1.41504 16.7959 1.41504 16.0928L1.41504 2.51367C1.41504 1.81055 1.82812 1.41504 2.5752 1.41504L8.72754 1.41504C9.46582 1.41504 9.87891 1.81055 9.87891 2.51367L9.87891 16.0928C9.87891 16.7959 9.46582 17.1914 8.72754 17.1914Z"
            fill="white" fill-opacity="0.2125" />
        <path
            d="M2.39062 18.6064L8.90332 18.6064C10.3359 18.6064 11.2939 17.6924 11.2939 16.3213L11.2939 2.28516C11.2939 0.914062 10.3359 0 8.90332 0L2.39062 0C0.958008 0 0 0.914062 0 2.28516L0 16.3213C0 17.6924 0.958008 18.6064 2.39062 18.6064ZM2.5752 17.1914C1.82812 17.1914 1.41504 16.7959 1.41504 16.0928L1.41504 2.51367C1.41504 1.81055 1.82812 1.41504 2.5752 1.41504L8.72754 1.41504C9.46582 1.41504 9.87891 1.81055 9.87891 2.51367L9.87891 16.0928C9.87891 16.7959 9.46582 17.1914 8.72754 17.1914ZM3.78809 16.5498L7.52344 16.5498C7.76074 16.5498 7.92773 16.3828 7.92773 16.1367C7.92773 15.8906 7.76074 15.7324 7.52344 15.7324L3.78809 15.7324C3.55078 15.7324 3.375 15.8906 3.375 16.1367C3.375 16.3828 3.55078 16.5498 3.78809 16.5498ZM4.58789 3.27832L6.71484 3.27832C7.05762 3.27832 7.33008 3.00586 7.33008 2.6543C7.33008 2.31152 7.05762 2.03906 6.71484 2.03906L4.58789 2.03906C4.23633 2.03906 3.96387 2.31152 3.96387 2.6543C3.96387 3.00586 4.23633 3.27832 4.58789 3.27832Z"
            fill="white" fill-opacity="0.85" />
    </g>
</svg>