<svg width="36" height="36" viewBox="-0.5 0 36 36" fill="none" xmlns="http://www.w3.org/2000/svg">
<path d="M13.3096 30.0194H22.0726C23.9694 30.0194 25.2339 28.7771 25.2339 26.9358V8.74428C25.2339 6.90295 23.9694 5.67169 22.0726 5.67169H13.3096C11.3795 5.67169 10.0928 6.90295 10.0928 8.74428V26.9358C10.0928 28.7771 11.3795 30.0194 13.3096 30.0194ZM13.6868 27.7344C12.8105 27.7344 12.3113 27.2574 12.3113 26.4144V9.26562C12.3113 8.4226 12.8105 7.94563 13.6868 7.94563H14.1415V8.50025C14.1415 8.98831 14.4632 9.30999 14.9402 9.30999H20.3976C20.8746 9.30999 21.1963 8.98831 21.1963 8.50025V7.94563H21.64C22.5163 7.94563 23.0154 8.43369 23.0154 9.27671V26.4144C23.0154 27.2574 22.5163 27.7344 21.64 27.7344H13.6868ZM14.7073 26.8581H20.6306C20.9523 26.8581 21.1963 26.6363 21.1963 26.2924C21.1963 25.9596 20.9523 25.7378 20.6306 25.7378H14.7073C14.3856 25.7378 14.1415 25.9596 14.1415 26.2924C14.1415 26.6363 14.3856 26.8581 14.7073 26.8581Z" fill="white"/>
</svg>
