<svg width="36" height="36" viewBox="0 0 36 36" fill="none" xmlns="http://www.w3.org/2000/svg">
    <path
        d="M15.5 7H20.5V10H15.5V7ZM15.5 26H20.5V29H15.5V26ZM13.5 10H22.5C23.8807 10 25 11.1193 25 12.5V23.5C25 24.8807 23.8807 26 22.5 26H13.5C12.1193 26 11 24.8807 11 23.5V12.5C11 11.1193 12.1193 10 13.5 10ZM14 12.5C13.4477 12.5 13 12.9477 13 13.5V22.5C13 23.0523 13.4477 23.5 14 23.5H22C22.5523 23.5 23 23.0523 23 22.5V13.5C23 12.9477 22.5523 12.5 22 12.5H14ZM26 15H27C27.5523 15 28 15.4477 28 16V18C28 18.5523 27.5523 19 27 19H26V15Z"
        fill-rule="evenodd" clip-rule="evenodd" />
</svg>