<svg width="157" height="156" viewBox="0 0 157 156" fill="none" xmlns="http://www.w3.org/2000/svg">
<g filter="url(#filter0_dii_394_241)">
<rect x="6.01074" y="3" width="144" height="144" rx="40" fill="url(#paint0_radial_394_241)" fill-opacity="0.5" shape-rendering="crispEdges"/>
<rect x="6.76074" y="3.75" width="142.5" height="142.5" rx="39.25" stroke="url(#paint1_linear_394_241)" stroke-opacity="0.3" stroke-width="1.5" shape-rendering="crispEdges"/>
<path d="M76.3023 42.615C88.2722 42.6151 98.723 49.11 104.327 58.7624C110.279 58.0629 115.396 57.7621 119.195 58.0113C121.182 58.1416 122.877 58.4263 124.163 58.9223C125.428 59.411 126.513 60.195 126.851 61.4558C127.266 63.0034 126.396 64.5445 125.138 65.8872C123.831 67.2819 121.84 68.7538 119.332 70.2553C118.847 70.5454 118.219 70.3875 117.929 69.903C117.638 69.4181 117.796 68.7892 118.281 68.4989C120.721 67.038 122.527 65.681 123.645 64.4881C124.81 63.2436 124.995 62.4372 124.874 61.9863C124.786 61.659 124.448 61.2259 123.426 60.8312C122.423 60.4438 120.964 60.1781 119.061 60.0533C115.269 59.8046 109.985 60.1303 103.693 60.9003C103.132 60.9689 102.621 60.5699 102.552 60.0092C102.549 59.9867 102.548 59.9641 102.547 59.9417C97.3242 50.8596 87.5265 44.7472 76.3023 44.747C59.5942 44.7472 46.0496 58.2917 46.0495 74.9999C46.0495 78.4656 46.6315 81.7932 47.7026 84.891C47.8947 85.4473 47.5999 86.0547 47.0439 86.2471C46.4875 86.4391 45.8805 86.1436 45.688 85.5872C44.778 82.9553 44.1986 80.1699 43.9974 77.2819C39.8036 79.2754 36.4812 81.2011 34.2385 82.939C32.9906 83.906 32.126 84.7774 31.6235 85.5273C31.1173 86.2829 31.0629 86.7825 31.1479 87.0996C31.2254 87.3882 31.4751 87.7469 32.1373 88.1139C32.8014 88.482 33.7779 88.7981 35.0838 89.0294C37.6897 89.4906 41.3721 89.5753 45.8971 89.2724C54.9305 88.6687 67.1095 86.5369 80.2792 83.0084C84.6591 81.8347 88.8685 80.5811 92.836 79.2838C93.3735 79.1082 93.9524 79.4011 94.1281 79.9385C94.3032 80.4754 94.0098 81.0538 93.4723 81.2295C89.4685 82.5383 85.2233 83.8025 80.8088 84.9851C69.623 87.9825 59.1085 89.9896 50.5684 90.913L50.5834 90.9383C63.7916 101.583 81.9677 103.643 103.484 88.0776C103.603 87.9909 103.729 87.9388 103.85 87.9167C104.153 87.7285 104.543 87.6953 104.886 87.8641C105.414 88.1244 105.632 88.7639 105.372 89.2918C100.093 100.008 89.0599 107.385 76.3023 107.385C64.2935 107.385 53.8131 100.848 48.2223 91.1433C47.4748 91.2091 46.745 91.2669 46.0337 91.3148C41.4416 91.6219 37.5702 91.5477 34.7274 91.045C33.3089 90.7937 32.086 90.425 31.1455 89.9039C30.2037 89.3817 29.4424 88.6461 29.17 87.6296C28.8699 86.5095 29.2522 85.3905 29.9237 84.3883C30.5992 83.3802 31.6544 82.3522 32.9851 81.321C35.5375 79.3432 39.2889 77.2109 43.9175 75.0575C43.9175 75.0381 43.9175 75.0192 43.9175 74.9999C43.9176 57.1143 58.4167 42.6151 76.3023 42.615Z" fill="white"/>
<path d="M105.466 63.9207C111.329 63.9211 116.082 68.6738 116.082 74.5366C116.082 80.3989 111.329 85.1521 105.466 85.1526C99.6038 85.1526 94.8511 80.3994 94.8506 74.5366C94.8506 68.6736 99.6038 63.9207 105.466 63.9207ZM105.466 66.7065C101.142 66.7065 97.6365 70.2123 97.6365 74.5366L97.6465 74.9388C97.8332 78.6284 100.574 81.6415 104.137 82.251C107.425 78.9455 111.67 71.9512 107.698 67.0296C107.113 66.8562 106.501 66.7485 105.869 66.7164L105.466 66.7065Z" fill="white"/>
</g>
<defs>
<filter id="filter0_dii_394_241" x="0.0107422" y="-1" width="156" height="157" filterUnits="userSpaceOnUse" color-interpolation-filters="sRGB">
<feFlood flood-opacity="0" result="BackgroundImageFix"/>
<feColorMatrix in="SourceAlpha" type="matrix" values="0 0 0 0 0 0 0 0 0 0 0 0 0 0 0 0 0 0 127 0" result="hardAlpha"/>
<feOffset dy="3"/>
<feGaussianBlur stdDeviation="3"/>
<feComposite in2="hardAlpha" operator="out"/>
<feColorMatrix type="matrix" values="0 0 0 0 0 0 0 0 0 0 0 0 0 0 0 0 0 0 0.08 0"/>
<feBlend mode="normal" in2="BackgroundImageFix" result="effect1_dropShadow_394_241"/>
<feBlend mode="normal" in="SourceGraphic" in2="effect1_dropShadow_394_241" result="shape"/>
<feColorMatrix in="SourceAlpha" type="matrix" values="0 0 0 0 0 0 0 0 0 0 0 0 0 0 0 0 0 0 127 0" result="hardAlpha"/>
<feOffset dy="3"/>
<feGaussianBlur stdDeviation="1.5"/>
<feComposite in2="hardAlpha" operator="arithmetic" k2="-1" k3="1"/>
<feColorMatrix type="matrix" values="0 0 0 0 1 0 0 0 0 1 0 0 0 0 1 0 0 0 0.07 0"/>
<feBlend mode="normal" in2="shape" result="effect2_innerShadow_394_241"/>
<feColorMatrix in="SourceAlpha" type="matrix" values="0 0 0 0 0 0 0 0 0 0 0 0 0 0 0 0 0 0 127 0" result="hardAlpha"/>
<feOffset dy="-4"/>
<feGaussianBlur stdDeviation="2"/>
<feComposite in2="hardAlpha" operator="arithmetic" k2="-1" k3="1"/>
<feColorMatrix type="matrix" values="0 0 0 0 1 0 0 0 0 1 0 0 0 0 1 0 0 0 0.25 0"/>
<feBlend mode="normal" in2="effect2_innerShadow_394_241" result="effect3_innerShadow_394_241"/>
</filter>
<radialGradient id="paint0_radial_394_241" cx="0" cy="0" r="1" gradientUnits="userSpaceOnUse" gradientTransform="translate(78.0107 36) rotate(90) scale(166)">
<stop offset="0.230769" stop-color="#272A2D"/>
<stop offset="1" stop-color="#7F8993"/>
</radialGradient>
<linearGradient id="paint1_linear_394_241" x1="78.0107" y1="3" x2="78.0107" y2="147" gradientUnits="userSpaceOnUse">
<stop stop-color="white" stop-opacity="0.1"/>
<stop offset="1" stop-color="#999999"/>
</linearGradient>
</defs>
</svg>
