<svg width="110" height="76" viewBox="0 0 110 76" fill="none" xmlns="http://www.w3.org/2000/svg">
<g filter="url(#filter0_b_2_2049)">
<path d="M45.0614 71.2041C43.1701 64.899 76.5827 46.772 93.5254 38.4966C92.7373 44.5389 91.9494 54.6533 81.7049 64.899C72.6425 73.9626 47.4255 79.0854 45.0614 71.2041Z" fill="url(#paint0_linear_2_2049)"/>
<path d="M40.3335 3.8192C14.1708 15.7989 17.349 42.0406 22.2086 53.4685C20.2383 54.2595 12.7517 54.6535 11.5699 53.0773C10.3882 51.5012 13.9343 47.9546 16.2984 46.3751L15.5103 43.2226C4.47791 48.7426 -0.701714 55.5668 0.931492 59.3824C2.11353 62.144 15.5103 69.231 60.8222 48.3455C106.134 27.4599 111.256 16.0351 108.892 12.0944C107.001 8.94192 93.7883 10.3837 87.6154 11.6973L90.7673 15.247C94.7075 14.4588 97.8596 14.4588 97.8596 16.4292C97.8596 19.6441 93.5256 22.4686 91.1615 23.9136C85.1199 12.3543 67.5206 -8.62956 40.3335 3.8192Z" fill="url(#paint1_linear_2_2049)"/>
</g>
<defs>
<filter id="filter0_b_2_2049" x="-3.36382" y="-4" width="116.728" height="83.09" filterUnits="userSpaceOnUse" color-interpolation-filters="sRGB">
<feFlood flood-opacity="0" result="BackgroundImageFix"/>
<feGaussianBlur in="BackgroundImageFix" stdDeviation="2"/>
<feComposite in2="SourceAlpha" operator="in" result="effect1_backgroundBlur_2_2049"/>
<feBlend mode="normal" in="SourceGraphic" in2="effect1_backgroundBlur_2_2049" result="shape"/>
</filter>
<linearGradient id="paint0_linear_2_2049" x1="58.6542" y1="75.0046" x2="84.1377" y2="4.88851" gradientUnits="userSpaceOnUse">
<stop stop-color="#CBDAF1"/>
<stop offset="1" stop-color="white"/>
</linearGradient>
<linearGradient id="paint1_linear_2_2049" x1="58.6542" y1="75.0046" x2="84.1377" y2="4.88851" gradientUnits="userSpaceOnUse">
<stop stop-color="#CBDAF1"/>
<stop offset="1" stop-color="white"/>
</linearGradient>
</defs>
</svg>
