<svg width="110" height="71" viewBox="0 0 110 71" fill="none" xmlns="http://www.w3.org/2000/svg">
<path d="M82.7508 18.5185C76.8441 8.12945 65.6756 1.12231 52.8705 1.12231C33.9006 1.12231 18.5225 16.5004 18.5225 35.4703C18.5225 39.5666 19.2395 43.4954 20.5549 47.138M83.7619 50.505C78.1862 61.9399 66.4484 69.8184 52.8705 69.8184C39.9696 69.8184 28.7299 62.706 22.8586 52.1885" stroke="white" stroke-width="2.24467" stroke-linecap="round"/>
<path d="M82.4916 50.505C59.9507 67.679 41.0637 65.5249 23.8896 52.6444C24.6052 60.158 39.9903 70.7023 55.0175 69.8184C73.2649 68.745 79.6293 56.2297 82.4916 50.505Z" fill="white"/>
<path d="M82.9232 18.365C96.7655 16.6709 106.288 17.423 107.222 20.9068C107.96 23.6596 103.2 27.6169 94.8373 31.8472M18.5207 36.229C7.7868 41.1433 1.4182 45.877 2.26314 49.0304C3.79744 54.7565 28.5371 53.1027 57.5206 45.3366C60.8939 44.4327 64.176 43.4859 67.3401 42.5093" stroke="white" stroke-width="2.24467"/>
<circle cx="80.8443" cy="34.4007" r="9.70934" stroke="white" stroke-width="2.24467"/>
<path d="M88.4938 30.303C87.9615 33.3548 86.3294 36.1256 83.8868 38.1239C81.4441 40.1222 78.349 41.2189 75.1502 41.2195C74.7856 41.2195 74.4299 41.2195 74.0742 41.1743C75.6641 42.7057 77.7768 43.6232 80.016 43.7546C82.2553 43.8861 84.4671 43.2225 86.2367 41.8884C88.0062 40.5543 89.2119 38.6413 89.6274 36.5083C90.043 34.3753 89.6399 32.1689 88.4938 30.303Z" fill="white"/>
</svg>
