<svg width="78" height="15" viewBox="0 0 78 15" fill="none" xmlns="http://www.w3.org/2000/svg">
<path d="M0.848 0.799999H7.712V3.072H3.216V5.088H7.216V7.36H3.216V9.728H7.712V12H0.848V0.799999ZM16.8725 12H14.1525L12.6645 9.872L11.1765 12H8.4885L11.3205 7.952L8.6645 4.144H11.3845L12.6805 6L13.9925 4.144H16.6805L14.0245 7.936L16.8725 12ZM22.5985 3.984C24.6305 3.984 26.2465 5.808 26.2465 8.064C26.2465 10.32 24.6305 12.16 22.5985 12.16C21.5105 12.16 20.6625 11.712 20.1185 10.896V14.592H17.8625V4.144H20.1185V5.248C20.6625 4.432 21.5105 3.984 22.5985 3.984ZM22.0865 10C23.1745 10 24.0545 9.152 24.0545 8.064C24.0545 6.992 23.1745 6.128 22.0865 6.128C20.9825 6.128 20.1185 6.976 20.1185 8.064C20.1185 9.168 20.9825 10 22.0865 10ZM31.169 3.984C33.473 3.984 35.249 5.744 35.249 8.08C35.249 10.416 33.473 12.16 31.169 12.16C28.849 12.16 27.089 10.416 27.089 8.08C27.089 5.744 28.849 3.984 31.169 3.984ZM31.169 6.144C30.097 6.144 29.297 6.96 29.297 8.08C29.297 9.168 30.097 10 31.169 10C32.225 10 33.041 9.168 33.041 8.08C33.041 6.96 32.225 6.144 31.169 6.144ZM45.2404 0.639999C48.5044 0.639999 50.9684 3.12 50.9684 6.4C50.9684 9.68 48.5044 12.16 45.2404 12.16C41.9764 12.16 39.5284 9.68 39.5284 6.4C39.5284 3.12 41.9764 0.639999 45.2404 0.639999ZM45.2404 2.944C43.3684 2.944 41.9604 4.432 41.9604 6.4C41.9604 8.368 43.3684 9.856 45.2404 9.856C47.1124 9.856 48.5204 8.368 48.5204 6.4C48.5204 4.432 47.1124 2.944 45.2404 2.944ZM56.444 3.984C56.86 3.984 57.244 4.048 57.484 4.16L57.228 6.352C56.924 6.224 56.572 6.16 56.22 6.16C55.468 6.16 54.556 6.736 54.556 8.128V12H52.3V4.144H54.556V5.12C54.892 4.448 55.756 3.984 56.444 3.984ZM63.2704 3.984C65.3024 3.984 66.9184 5.808 66.9184 8.064C66.9184 10.32 65.3024 12.16 63.2704 12.16C62.1824 12.16 61.3344 11.712 60.7904 10.896V12H58.5344V0.799999H60.7904V5.248C61.3344 4.432 62.1824 3.984 63.2704 3.984ZM62.7584 10C63.8464 10 64.7264 9.152 64.7264 8.064C64.7264 6.992 63.8464 6.128 62.7584 6.128C61.6544 6.128 60.7904 6.976 60.7904 8.064C60.7904 9.168 61.6544 10 62.7584 10ZM69.295 0.335999C70.047 0.335999 70.671 0.959999 70.671 1.696C70.671 2.448 70.047 3.072 69.295 3.072C68.543 3.072 67.919 2.448 67.919 1.696C67.919 0.959999 68.543 0.335999 69.295 0.335999ZM68.175 4.144H70.431V12H68.175V4.144ZM77.0104 9.904L77.1224 11.904C76.8344 12.048 76.3864 12.128 75.9704 12.128C74.1304 12.128 72.8344 10.96 72.8344 8.928V6.288H71.3784V4.144H72.8344V2.08H75.0904V4.144H77.0264V6.288H75.0904V8.816C75.0904 9.552 75.6504 10.016 76.3064 10.016C76.5304 10.016 76.8344 9.968 77.0104 9.904Z" />
</svg>
